<svg xmlns="http://www.w3.org/2000/svg" width="1536" height="952"><defs><linearGradient id="a" x1="47.098%" x2="56.264%" y1="69.196%" y2="44.308%"><stop offset="0%" stop-color="#70B"/><stop offset="100%" stop-color="#00008B"/></linearGradient><linearGradient id="b" x1=".007%" x2="100.001%" y1="49.993%" y2="49.993%"><stop offset="0%" stop-color="#70B"/><stop offset="100%" stop-color="#00008B"/><stop offset="100%"/></linearGradient><linearGradient id="c" x1="-27.472%" x2="72.147%" y1="49.846%" y2="50.326%"><stop offset="0%" stop-color="#27004F"/><stop offset="100%" stop-color="#004C81"/></linearGradient><linearGradient id="d" x1=".354%" x2="100.821%" y1="50.115%" y2="49.766%"><stop offset="0%" stop-color="#27004F"/><stop offset="100%" stop-color="#004C81"/></linearGradient><linearGradient id="e" x1="49.979%" x2="49.979%" y1="116.782%" y2="16.248%"><stop offset="20%" stop-color="#88CFDA"/><stop offset="23%" stop-color="#A0D3CE"/><stop offset="28%" stop-color="#C2D8BE"/><stop offset="33%" stop-color="#DDDCB1"/><stop offset="38%" stop-color="#F0DFA7"/><stop offset="44%" stop-color="#FBE0A2"/><stop offset="49%" stop-color="#FFE1A0"/><stop offset="60%" stop-color="#FFE9BB"/><stop offset="77%" stop-color="#FFF5E0"/><stop offset="91%" stop-color="#FFFCF7"/><stop offset="100%" stop-color="#FFF"/></linearGradient><linearGradient id="f" x1="50%" x2="50%" y1="0%" y2="99.961%"><stop offset="0%" stop-color="#88AEDA"/><stop offset="4%" stop-color="#8EAED4"/><stop offset="50%" stop-color="#CBA895"/><stop offset="83%" stop-color="#F1A56D"/><stop offset="100%" stop-color="#FFA45E"/></linearGradient><linearGradient id="g" x1=".026%" x2="100.039%" y1="50%" y2="50%"><stop offset="0%" stop-color="#88CFDA"/><stop offset="4%" stop-color="#8ED0D4"/><stop offset="50%" stop-color="#CBD995"/><stop offset="83%" stop-color="#F1DF6D"/><stop offset="100%" stop-color="#FFE15E"/></linearGradient><linearGradient id="h" x1=".088%" x2="100.022%" y1="50%" y2="50%"><stop offset="0%" stop-color="#A1BAFF"/><stop offset="8%" stop-color="#B5C9FF"/><stop offset="21%" stop-color="#D0DDFF"/><stop offset="35%" stop-color="#E5ECFF"/><stop offset="51%" stop-color="#F4F7FF"/><stop offset="70%" stop-color="#FCFDFF"/><stop offset="100%" stop-color="#FFF"/></linearGradient><linearGradient id="i" x1="-38.332%" x2="124.337%" y1="-3.41%" y2="81.581%"><stop offset="0%" stop-color="#3D00BA"/><stop offset="75%" stop-color="#CE00FF"/></linearGradient><linearGradient id="j" x1="116.655%" x2="-24.055%" y1="29.7%" y2="65.488%"><stop offset="0%" stop-color="#3D00BA"/><stop offset="75%" stop-color="#CE00FF"/></linearGradient><linearGradient id="k" x1="-.266%" x2="99.778%" y1="50%" y2="50%"><stop offset="0%" stop-color="#3D00BA"/><stop offset="75%" stop-color="#CE00FF"/></linearGradient><linearGradient id="l" x1="-.001%" x2="99.992%" y1="50.015%" y2="50.015%"><stop offset="0%" stop-color="#A1BAFF"/><stop offset="4%" stop-color="#A9C0FF"/><stop offset="37%" stop-color="#E7EDFF"/><stop offset="52%" stop-color="#FFF"/><stop offset="100%" stop-color="#CEDBFF"/></linearGradient><linearGradient id="m" x1=".07%" x2="100%" y1="49.93%" y2="49.93%"><stop offset="0%" stop-color="#7633FF"/><stop offset="22%" stop-color="#4E53FF"/><stop offset="44%" stop-color="#2C6DFF"/><stop offset="65%" stop-color="#1480FF"/><stop offset="84%" stop-color="#058CFF"/><stop offset="100%" stop-color="#0090FF"/></linearGradient><linearGradient id="n" x1="-.068%" x2="99.99%" y1="49.985%" y2="49.985%"><stop offset="0%" stop-color="#3D00BA"/><stop offset="75%" stop-color="#CE00FF"/></linearGradient><linearGradient id="o" x1="48.983%" x2="51.51%" y1="3.868%" y2="86.627%"><stop offset="0%" stop-color="#A1BAFF"/><stop offset="4%" stop-color="#A9C0FF"/><stop offset="37%" stop-color="#E7EDFF"/><stop offset="52%" stop-color="#FFF"/><stop offset="100%" stop-color="#CEDBFF"/></linearGradient><linearGradient id="p" x1=".252%" x2="100.186%" y1="49.937%" y2="49.937%"><stop offset="0%" stop-color="#A1BAFF"/><stop offset="4%" stop-color="#A9C0FF"/><stop offset="37%" stop-color="#E7EDFF"/><stop offset="52%" stop-color="#FFF"/><stop offset="100%" stop-color="#CEDBFF"/></linearGradient><linearGradient id="q" x1="-.057%" x2="99.941%" y1="50.003%" y2="50.003%"><stop offset="0%" stop-color="#A1BAFF"/><stop offset="4%" stop-color="#A9C0FF"/><stop offset="37%" stop-color="#E7EDFF"/><stop offset="52%" stop-color="#FFF"/><stop offset="100%" stop-color="#CEDBFF"/></linearGradient><linearGradient id="r" x1=".102%" x2="100%" y1="49.893%" y2="49.893%"><stop offset="0%" stop-color="#7633FF"/><stop offset="16%" stop-color="#7137FF"/><stop offset="35%" stop-color="#6144FF"/><stop offset="57%" stop-color="#4758FF"/><stop offset="81%" stop-color="#2374FF"/><stop offset="100%" stop-color="#0090FF"/></linearGradient><linearGradient id="s" x1="25.882%" x2="70.545%" y1="-22.566%" y2="112.135%"><stop offset="0%" stop-color="#A1BAFF"/><stop offset="4%" stop-color="#A9C0FF"/><stop offset="37%" stop-color="#E7EDFF"/><stop offset="52%" stop-color="#FFF"/><stop offset="100%" stop-color="#CEDBFF"/></linearGradient><linearGradient id="t" x1="37.557%" x2="60.286%" y1="-23.47%" y2="110.76%"><stop offset="0%" stop-color="#A1BAFF"/><stop offset="4%" stop-color="#A9C0FF"/><stop offset="37%" stop-color="#E7EDFF"/><stop offset="52%" stop-color="#FFF"/><stop offset="100%" stop-color="#CEDBFF"/></linearGradient><linearGradient id="u" x1="37.115%" x2="59.921%" y1="-25.857%" y2="108.5%"><stop offset="0%" stop-color="#A1BAFF"/><stop offset="4%" stop-color="#A9C0FF"/><stop offset="37%" stop-color="#E7EDFF"/><stop offset="52%" stop-color="#FFF"/><stop offset="100%" stop-color="#CEDBFF"/></linearGradient><linearGradient id="v" x1="23.055%" x2="67.755%" y1="-31.166%" y2="103.517%"><stop offset="0%" stop-color="#A1BAFF"/><stop offset="4%" stop-color="#A9C0FF"/><stop offset="37%" stop-color="#E7EDFF"/><stop offset="52%" stop-color="#FFF"/><stop offset="100%" stop-color="#CEDBFF"/></linearGradient><linearGradient id="w" x1="-.561%" x2="99.485%" y1="49.968%" y2="49.968%"><stop offset="0%" stop-color="#EA9C1F"/><stop offset="13%" stop-color="#EA9C1F"/><stop offset="100%" stop-color="#EA9C1F"/></linearGradient><linearGradient id="x" x1="-.362%" x2="99.689%" y1="48.901%" y2="48.901%"><stop offset="0%" stop-color="#3D00BA"/><stop offset="75%" stop-color="#CE00FF"/></linearGradient><linearGradient id="y" x1=".153%" x2="100.033%" y1="50.02%" y2="50.02%"><stop offset="0%" stop-color="#EA8C1F"/><stop offset="11%" stop-color="#EA911F"/><stop offset="46%" stop-color="#EA991F"/><stop offset="100%" stop-color="#EA9C1F"/></linearGradient><linearGradient id="z" x1="-.503%" x2="99.922%" y1="50%" y2="50%"><stop offset="0%" stop-color="#3D00BA"/><stop offset="75%" stop-color="#CE00FF"/></linearGradient><linearGradient id="A" x1=".112%" x2="99.982%" y1="49.974%" y2="49.974%"><stop offset="0%" stop-color="#EA4D1F"/><stop offset="2%" stop-color="#EA521F"/><stop offset="16%" stop-color="#EA6D1F"/><stop offset="31%" stop-color="#EA821F"/><stop offset="48%" stop-color="#EA911F"/><stop offset="68%" stop-color="#EA991F"/><stop offset="100%" stop-color="#EA9C1F"/></linearGradient><linearGradient id="B" x1=".155%" x2="99.873%" y1="49.968%" y2="49.968%"><stop offset="0%" stop-color="#EA8C1F"/><stop offset="11%" stop-color="#EA911F"/><stop offset="46%" stop-color="#EA991F"/><stop offset="100%" stop-color="#EA9C1F"/></linearGradient><linearGradient id="C" x1=".038%" x2="100.263%" y1="49.933%" y2="49.933%"><stop offset="0%" stop-color="#EA4D1F"/><stop offset="2%" stop-color="#EA521F"/><stop offset="16%" stop-color="#EA6D1F"/><stop offset="31%" stop-color="#EA821F"/><stop offset="48%" stop-color="#EA911F"/><stop offset="68%" stop-color="#EA991F"/><stop offset="100%" stop-color="#EA9C1F"/></linearGradient><linearGradient id="D" x1=".019%" x2="99.986%" y1="49.996%" y2="49.996%"><stop offset="0%" stop-color="#EA4D1F"/><stop offset="2%" stop-color="#EA521F"/><stop offset="16%" stop-color="#EA6D1F"/><stop offset="31%" stop-color="#EA821F"/><stop offset="48%" stop-color="#EA911F"/><stop offset="68%" stop-color="#EA991F"/><stop offset="100%" stop-color="#EA9C1F"/></linearGradient><linearGradient id="E" x1="51.595%" x2="48.906%" y1="110.979%" y2="-1.667%"><stop offset="0%" stop-color="#27004F"/><stop offset="74%" stop-color="#0086A4"/></linearGradient><linearGradient id="F" x1="5.645%" x2="105.659%" y1="50.007%" y2="50.007%"><stop offset="12%" stop-color="#935006"/><stop offset="43%" stop-color="#A0570D"/><stop offset="75%" stop-color="#A85C11"/></linearGradient><linearGradient id="G" x1="43.665%" x2="75.462%" y1="7.017%" y2="126.836%"><stop offset="0%" stop-color="#27004F"/><stop offset="74%" stop-color="#0068A4"/></linearGradient><linearGradient id="H" x1="0%" x2="100.158%" y1="50%" y2="50%"><stop offset="0%" stop-color="#7633FF"/><stop offset="22%" stop-color="#4E53FF"/><stop offset="44%" stop-color="#2C6DFF"/><stop offset="65%" stop-color="#1480FF"/><stop offset="84%" stop-color="#058CFF"/><stop offset="100%" stop-color="#0090FF"/></linearGradient><linearGradient id="I" x1="0%" x2="100.36%" y1="49.932%" y2="49.932%"><stop offset="0%" stop-color="#7633FF"/><stop offset="22%" stop-color="#4E53FF"/><stop offset="44%" stop-color="#2C6DFF"/><stop offset="65%" stop-color="#1480FF"/><stop offset="84%" stop-color="#058CFF"/><stop offset="100%" stop-color="#0090FF"/></linearGradient><linearGradient id="J" x1=".051%" x2="100%" y1="49.852%" y2="49.852%"><stop offset="10%" stop-color="#0048DF"/><stop offset="49%" stop-color="#0072DB"/><stop offset="81%" stop-color="#008ED9"/><stop offset="100%" stop-color="#0098D8"/></linearGradient><linearGradient id="K" x1="0%" x2="100%" y1="50.018%" y2="50.018%"><stop offset="10%" stop-color="#001A43"/><stop offset="11%" stop-color="#001C46"/><stop offset="42%" stop-color="#003E84"/><stop offset="68%" stop-color="#0057B2"/><stop offset="88%" stop-color="#0066CE"/><stop offset="100%" stop-color="#006CD8"/></linearGradient><linearGradient id="L" x1="-.071%" x2="100%" y1="49.918%" y2="49.918%"><stop offset="10%" stop-color="#0048DF"/><stop offset="49%" stop-color="#0072DB"/><stop offset="81%" stop-color="#008ED9"/><stop offset="100%" stop-color="#0098D8"/></linearGradient><linearGradient id="M" x1=".287%" x2="100%" y1="50.072%" y2="50.072%"><stop offset="0%" stop-color="#A1BAFF"/><stop offset="9%" stop-color="#ACC2FF"/><stop offset="50%" stop-color="#D9E3FF"/><stop offset="82%" stop-color="#F5F7FF"/><stop offset="100%" stop-color="#FFF"/></linearGradient><linearGradient id="N" x1="-.903%" x2="99.504%" y1="49.955%" y2="49.955%"><stop offset="0%" stop-color="#A1BAFF"/><stop offset="9%" stop-color="#ACC2FF"/><stop offset="50%" stop-color="#D9E3FF"/><stop offset="82%" stop-color="#F5F7FF"/><stop offset="100%" stop-color="#FFF"/></linearGradient><linearGradient id="O" x1="0%" x2="99.855%" y1="49.985%" y2="49.985%"><stop offset="10%" stop-color="#0048DF"/><stop offset="49%" stop-color="#0072DB"/><stop offset="81%" stop-color="#008ED9"/><stop offset="100%" stop-color="#0098D8"/></linearGradient><linearGradient id="P" x1=".321%" x2="100.444%" y1="49.931%" y2="49.931%"><stop offset="0%" stop-color="#A1BAFF"/><stop offset="9%" stop-color="#ACC2FF"/><stop offset="50%" stop-color="#D9E3FF"/><stop offset="82%" stop-color="#F5F7FF"/><stop offset="100%" stop-color="#FFF"/></linearGradient><linearGradient id="Q" x1="-.017%" x2="100%" y1="50.082%" y2="50.082%"><stop offset="10%" stop-color="#0048DF"/><stop offset="49%" stop-color="#0072DB"/><stop offset="81%" stop-color="#008ED9"/><stop offset="100%" stop-color="#0098D8"/></linearGradient><linearGradient id="R" x1="-.866%" x2="99.953%" y1="49.943%" y2="49.943%"><stop offset="0%" stop-color="#A1BAFF"/><stop offset="100%" stop-color="#FFF"/></linearGradient><linearGradient id="S" x1=".095%" x2="99.958%" y1="50.032%" y2="50.032%"><stop offset="0%" stop-color="#A1BAFF"/><stop offset="100%" stop-color="#FFF"/></linearGradient><linearGradient id="T" x1="0%" x2="100%" y1="49.686%" y2="49.686%"><stop offset="0%" stop-color="#A1BAFF"/><stop offset="100%" stop-color="#FFF"/></linearGradient><linearGradient id="U" x1="0%" x2="100%" y1="50%" y2="50%"><stop offset="0%" stop-color="#A1BAFF"/><stop offset="100%" stop-color="#FFF"/></linearGradient><linearGradient id="V" x1="0%" x2="100%" y1="50.047%" y2="50.047%"><stop offset="0%" stop-color="#6A4400"/><stop offset="7%" stop-color="#6E4200"/><stop offset="66%" stop-color="#8A3600"/><stop offset="100%" stop-color="#943100"/></linearGradient><linearGradient id="W" x1=".506%" x2="100.468%" y1="50.15%" y2="50.15%"><stop offset="0%" stop-color="#6A4400"/><stop offset="7%" stop-color="#6E4200"/><stop offset="66%" stop-color="#8A3600"/><stop offset="100%" stop-color="#943100"/></linearGradient><linearGradient id="X" x1="-.884%" x2="100%" y1="49.852%" y2="49.852%"><stop offset="0%" stop-color="#6A4400"/><stop offset="7%" stop-color="#6E4200"/><stop offset="66%" stop-color="#8A3600"/><stop offset="100%" stop-color="#943100"/></linearGradient><linearGradient id="Y" x1="0%" x2="100%" y1="49.994%" y2="49.994%"><stop offset="0%" stop-color="#6A4400"/><stop offset="7%" stop-color="#6E4200"/><stop offset="66%" stop-color="#8A3600"/><stop offset="100%" stop-color="#943100"/></linearGradient><linearGradient id="Z" x1="61.787%" x2="42.218%" y1="12.727%" y2="107.146%"><stop offset="0%" stop-color="#88CFDA"/><stop offset="1%" stop-color="#89CFD9"/><stop offset="48%" stop-color="#C8D9BB"/><stop offset="82%" stop-color="#F0DFA7"/><stop offset="100%" stop-color="#FFE1A0"/></linearGradient><linearGradient id="aa" x1="-.079%" x2="100%" y1="50.733%" y2="50.733%"><stop offset="0%" stop-color="#A1BAFF"/><stop offset="9%" stop-color="#ACC2FF"/><stop offset="50%" stop-color="#D9E3FF"/><stop offset="82%" stop-color="#F5F7FF"/><stop offset="100%" stop-color="#FFF"/></linearGradient><linearGradient id="ab" x1="-.011%" x2="99.386%" y1="50.203%" y2="50.203%"><stop offset="0%" stop-color="#A1BAFF"/><stop offset="9%" stop-color="#ACC2FF"/><stop offset="50%" stop-color="#D9E3FF"/><stop offset="82%" stop-color="#F5F7FF"/><stop offset="100%" stop-color="#FFF"/></linearGradient></defs><g fill="none"><path fill="url(#a)" d="M178.76 805.728c85.56 51.854 387.398 72.775 739.41 56.208 352.011-16.567 582.976-69.071 544.683-185.191-38.294-116.12-162.348-125.13-140.344-259.368 22.004-134.239 38.945-266.075-88.767-315.727-127.713-49.65-293.268 12.463-395.368 67.62-102.1 55.157-283.193 163.57-339.731 139.645-56.538-23.925-115.282-91.795-218.435-2.853C41.173 512.325 90.594 752.372 178.76 805.728Z"/><path fill="url(#b)" d="M1478.3 883.072c-74.272 46.358-263.31 55.428-640.183 55.428s-662.384-8.264-682.43-60.114c-6.566-17.082 32.675-51.549 148.895-34.215 173.501 25.95 259.2 22.827 428.743 22.827 231.636 0 490.837-36.18 627.603-69.185 85.398-20.559 195.553 36.432 117.372 85.259Z"/><path fill="url(#c)" d="M563.992 897.678c0 11.038-77.487 17.275-173.05 13.91-95.563-3.367-173-15.148-172.95-26.384.05-11.237 77.588-17.127 173.252-13.761 95.663 3.366 172.748 15.147 172.748 26.235Z" opacity=".4"/><path fill="url(#d)" d="M1447.992 880.473c0 14.184-118.73 35.892-333.025 40.163-184.011 3.61-332.975 3-332.975-11.134s149.064-32.13 332.975-40.163c183.91-8.033 332.975-3.05 333.025 11.134Z" opacity=".4"/><path fill="#FFF" d="M791.033 610.235c-.268-3.782-3.373-6.718-7.125-6.735-2.964.016-5.604 1.898-6.613 4.714a7.043 7.043 0 0 0-5.126-2.383c-3.964 0-7.177 3.247-7.177 7.253a7.317 7.317 0 0 0 3.742 6.372 7.208 7.208 0 0 0-1.167 7.578 7.074 7.074 0 0 0 6.293 4.285 7.476 7.476 0 0 0 3.691-1.036 6.44 6.44 0 0 0 0 1.036c0 2.862 2.295 5.181 5.126 5.181 2.831 0 5.126-2.32 5.126-5.18.05-.413.05-.83 0-1.244.899.272 1.831.411 2.769.415 4.759-.874 8.267-4.99 8.415-9.877.148-4.886-3.103-9.212-7.8-10.38h-.154ZM597.068 631.03c-.257-3.648-3.224-6.487-6.823-6.53-2.877-.005-5.448 1.823-6.428 4.571a6.975 6.975 0 0 0-4.945-2.31c-3.158.02-5.902 2.208-6.671 5.32-.769 3.113.633 6.36 3.408 7.892a6.744 6.744 0 0 0-1.681 4.571c0 3.829 3.055 6.932 6.823 6.932a6.694 6.694 0 0 0 3.56-1.004 3.47 3.47 0 0 0 0 1.004c0 2.775 2.214 5.024 4.945 5.024 2.73 0 4.944-2.25 4.944-5.024a4.338 4.338 0 0 0 0-1.155c.874.219 1.77.337 2.67.352 4.59-.847 7.974-4.84 8.117-9.577.143-4.739-2.993-8.934-7.524-10.065h-.395ZM822.97 628.364a16.64 16.64 0 0 1-8.71-1.864c-1.497.016-2.797.972-3.166 2.329-.369 1.357.284 2.777 1.592 3.46a2.788 2.788 0 0 0-.787 1.962 2.892 2.892 0 0 0 .919 2.148 3.315 3.315 0 0 0 2.282.893 3.483 3.483 0 0 0 1.732-.441 1.285 1.285 0 0 0 0 .441c0 1.22 1.057 2.208 2.36 2.208 1.305 0 2.362-.988 2.362-2.208a1.652 1.652 0 0 0 0-.49 5.61 5.61 0 0 0 1.312 0c2.346-.235 4.126-2.086 4.126-4.293 0-2.206-1.78-4.057-4.126-4.292l.105.147ZM640.562 613.41a4.173 4.173 0 0 0-4.228-3.91 4.124 4.124 0 0 0-3.918 2.727 4.285 4.285 0 0 0-4.696-1.084 4.27 4.27 0 0 0-2.728 3.966 4.167 4.167 0 0 0 2.217 3.704 4.368 4.368 0 0 0-1.031 2.779 4.223 4.223 0 0 0 4.227 4.219 4.44 4.44 0 0 0 2.166-.618 2.567 2.567 0 0 0 0 .618 3.091 3.091 0 0 0 3.067 2.689 3.091 3.091 0 0 0 3.068-2.69 3.03 3.03 0 0 0 0-.72 5.786 5.786 0 0 0 1.65 0 5.974 5.974 0 0 0 5.633-5.777 5.972 5.972 0 0 0-5.273-6.108l-.154.206ZM567.693 664.526c-.088-1.517-1.211-2.765-2.693-2.99a3.163 3.163 0 0 0-3.439 2.057 3.098 3.098 0 0 0-2.35-1.089c-1.778 0-3.219 1.463-3.219 3.266a3.26 3.26 0 0 1 1.754 2.355 3.297 3.297 0 0 1-.834 2.829c0 .852.333 1.67.928 2.272.594.603 1.4.941 2.24.941a3.336 3.336 0 0 0 1.635-.466v.466c0 1.289 1.029 2.333 2.299 2.333s2.299-1.044 2.299-2.333a1.945 1.945 0 0 0 0-.57c1.343.37 2.78.087 3.889-.765a4.584 4.584 0 0 0 1.782-3.589 4.497 4.497 0 0 0-1.157-3.284 4.367 4.367 0 0 0-3.134-1.433Z"/><path fill="url(#e)" d="M891.461 861.96c49.178-2.344 100.706-4.19 144.531-8.18-11.607-49.884-58.233-88.694-108.26-88.943a100.296 100.296 0 0 0-43.725 9.977c-6.704-29.93-31.518-52.179-61.284-52.328 0-1.247 0-2.445-.25-3.692.218-1.737.335-3.486.35-5.238 0-22.846-16.96-41.503-38.122-41.603a35.96 35.96 0 0 0-13.707 2.744c-1.66-15.291-11.85-28.331-26.315-33.672l-18.46-53.525H695.85l-18.61 52.378a30.099 30.099 0 0 0-7.354-.948c-18.927.704-33.716 16.543-33.069 35.418a34.82 34.82 0 0 0 .4 4.988v1.147a44.737 44.737 0 0 0-16.959-3.392c-27.015 0-49.027 23.396-49.227 52.578a35.368 35.368 0 0 0-5.003-.549c-12.619.222-23.883 7.94-28.616 19.605a101.302 101.302 0 0 0-58.883-19.355c-59.284-.3-107.61 51.43-107.91 115.53v6.685a29.267 29.267 0 0 0-22.967-15.557 29.307 29.307 0 0 0-25.661 10.569c135.526 20.701 341.641 26.438 569.469 15.364Z"/><path fill="url(#f)" d="M748.521 497.5h-75.108c-15.25 17.328-22.874 39.904-21.192 62.76a101.184 101.184 0 0 1 12.493-11.787 1.385 1.385 0 0 1 1.566-.078c.487.3.73.869.609 1.421-1.315 8.405 0 33.717 44.104 76.684 44.255-42.967 45.52-68.28 44.053-76.684a1.384 1.384 0 0 1 .659-1.398 1.436 1.436 0 0 1 1.566.055 105.452 105.452 0 0 1 12.493 11.786c1.68-22.863-5.964-45.444-21.243-62.759Z"/><path fill="url(#g)" d="M710.48 468.5s-48.349 37.81 0 103c48.401-65.19 0-103 0-103Z"/><path fill="url(#h)" d="M711.481 491.5s-28.1 22.77 0 62c28.15-39.23 0-62 0-62Z"/><path fill="#949494" stroke="#424242" stroke-width="3.46" d="m657.992 479.5 5.344 11.227c2.28 4.768 6.798 7.761 11.727 7.773h70.858c4.933 0 9.455-2.997 11.727-7.773l5.344-11.227h-105Z"/><path fill="#4D4D4D" stroke="#424242" stroke-width="3.46" d="m641.992 460.5 6.965 12.987c2.973 5.535 8.884 9.01 15.334 9.013h92.402c6.45-.003 12.361-3.478 15.334-9.013l6.965-12.987h-137Z"/><path fill="url(#i)" d="M775.736 356.5s117.383 40.025 109.914 157c0 0-98.862-100.064-152.658-78.5l42.744-78.5Z"/><path fill="url(#j)" d="M645.298 356.5s-117.433 40.025-109.964 157c0 0 98.862-100.064 152.658-78.5l-42.694-78.5Z"/><path fill="url(#k)" d="M766.992 132.5a367.579 367.579 0 0 0-56.7-97 368.184 368.184 0 0 0-56.3 95.951 240.918 240.918 0 0 1 113 1.049Z"/><path fill="url(#l)" d="m768.644 137.011-1.551-3.97a230.461 230.461 0 0 0-112.767-1.055l-1.952 5.025c-51.503 133.862-28.129 279.13-20.02 320.133 1.353 6.607 7.144 11.351 13.864 11.356H774.5c6.72-.005 12.511-4.749 13.865-11.356 8.408-41.003 31.782-186.271-19.72-320.133Z"/><path fill="#000" d="M754.992 240.949c.02 19.62-11.419 37.32-28.98 44.843-17.56 7.523-37.784 3.386-51.235-10.48-13.452-13.867-17.482-34.732-10.21-52.86 7.271-18.13 24.412-29.952 43.426-29.952 25.937 0 46.972 21.683 46.999 48.449Z"/><path fill="#7C7C7C" stroke="#424242" stroke-width="3.46" d="M736.452 269.34c14.946-13.955 15.439-37.06 1.101-51.608-14.337-14.547-38.075-15.027-53.021-1.072-14.946 13.955-15.439 37.06-1.101 51.608 14.337 14.547 38.075 15.027 53.021 1.072Z"/><path fill="url(#m)" d="M743.992 240.45a36 36 0 1 1-36-35.95c19.863 0 35.973 16.087 36 35.95Z"/><path fill="#000" stroke="#424242" stroke-width="3.46" d="M711.017 210.4c14.063-.007 26.886 8.082 32.983 20.807-3.628-13.508-14.574-23.78-28.241-26.503-13.668-2.722-27.69 2.577-36.178 13.673-8.488 11.095-9.971 26.065-3.828 38.623a36.36 36.36 0 0 1-1.368-9.768c0-20.322 16.392-36.804 36.632-36.832Z" opacity=".08"/><path fill="url(#n)" d="M711.504 371.5a207.831 207.831 0 0 0 0 167 208.083 208.083 0 0 0 0-167Z"/><path fill="url(#o)" d="M1111.818 643.65c5.592-17.2 19.971-46.7 11.633-51.85a91.574 91.574 0 0 0-24.365-7.7h4.394s-8.788-5-9.536-8.2c-.35-1.7-1.049-6.9-1.598-11.5a33.228 33.228 0 0 0 7.889-20.9c0-13.85-8.588-25-19.223-25s-19.272 11.15-19.322 25a33.479 33.479 0 0 0 7.49 20.3c-.6 5-1.349 10.8-1.798 12.65-.7 3.25-9.437 8.15-9.537 8.2a68.629 68.629 0 0 0-20.27 6.2c-8.488 5 6.19 36.1 11.783 53.3 1.348 4.1 1.148 22.65.599 39.05 0 4.05-3.445 22.65-2.896 30.35 0 2.3 26.112 16.55 33.402 16.95v-.55c7.24-.35 33.252-14.55 33.402-16.85.55-7.7-2.996-23.35-3.096-27.4a260.372 260.372 0 0 1 1.049-42.05Z"/><path fill="url(#p)" d="M1017.754 548.43a31.705 31.705 0 0 0-5.621-4.207 64.384 64.384 0 0 0-7.86-21.337 294.533 294.533 0 0 0-17.412-25.944 92.717 92.717 0 0 0 1.244-13.223 78.381 78.381 0 0 0-4.627-11.219s-2.338 3.706-4.527 4.007c-2.188.3-7.959.5-7.959.5.01 4.095.46 8.175 1.343 12.172a38.845 38.845 0 0 0 2.686 5.96c1.443 5.008 9.95 33.808 15.273 46.23 1.394 3.62 3.34 7 5.77 10.016.277 1.228.73 2.41 1.344 3.506 2.487 4.458 14.177 19.283 16.018 21.988 1.84 2.705 5.472 10.017 12.486 20.034 7.015 10.017 15.67 12.772 20.844 8.916 14.178-10.619-22.435-51.238-29.002-57.399Z"/><path fill="url(#q)" d="M1188.073 481.098c-2.169-.556-4.085-4.598-4.085-4.598a78.26 78.26 0 0 0-6.053 10.662 97.803 97.803 0 0 0-.353 13.795 296.203 296.203 0 0 0-19.772 25.821 71.057 71.057 0 0 0-9.08 19.808 31.932 31.932 0 0 0-6.102 4.548c-6.456 6.064-43.58 47.196-29.457 57.706 5.296 3.891 14.022.96 21.134-8.994 7.112-9.955 10.946-17.534 12.71-20.213 1.766-2.678 13.72-17.685 16.242-22.183l.454-.96a35.02 35.02 0 0 0 7.162-10.359c5.902-11.672 15.536-38.352 17.906-44.87a37.854 37.854 0 0 0 4.338-6.62 57.186 57.186 0 0 0 2.875-12.027s-5.8-.96-7.919-1.516Z"/><path fill="#FFBD95" d="M1063.365 696.5c-12.738 0-17.697 9.136-17.357 37.247.34 28.112 4.327 58.682 6.077 63.1 1.75 4.417 19.836 4.518 21.587 1.958 1.75-2.56 6.32-60.941 6.32-70.278 0-9.337-2.625-31.977-16.627-32.027Z"/><path fill="#FFBD95" d="m1051.04 817.043.678-26.654a1.89 1.89 0 0 1 1.937-1.84l18.448.47a1.89 1.89 0 0 1 1.84 1.938l-.677 26.654a1.89 1.89 0 0 1-1.937 1.84l-18.448-.47a1.89 1.89 0 0 1-1.841-1.938Z"/><path fill="#000" d="M1061.482 801.5c-4.064 0-10.971.354-10.464 26.817a491.835 491.835 0 0 0 8.23 66.183h9.599s5.08-51.51 5.08-60.718c.253-21.555.406-32.282-12.445-32.282Z"/><path fill="#FFBD95" d="M1097.993 696.645c12.92-1.407 18.86 7.186 21.434 35.174 2.574 27.989 1.535 58.892 0 63.464-1.534 4.573-19.8 6.583-21.681 4.221-1.881-2.362-12.524-59.997-13.465-69.092-.94-9.095-.346-32.209 13.712-33.767Z"/><rect width="22" height="32" x="1097.992" y="786.5" fill="#FFBD95" rx="1.89"/><path fill="#000" d="M1109.906 799.57c-3.846-.396-13.364 0-15.48 25.744-2.115 25.744 4.183 64.186 4.183 64.186l9.615-.893s9.278-47.271 10.24-56.447c2.355-20.834 3.557-31.25-8.558-32.59Z"/><path fill="url(#r)" d="M1154.992 574.677s-15.754-17.624-16.757-18.223c-1.003-.599-23.831 24.164-28.597 29.306-5.77-1.847-10.687-4.044-10.687-4.044-3.616 6.234-10.325 10.05-17.56 9.985-9.431 0-17.509-9.985-17.509-9.985s-4.465 1.947-10.034 3.744c0 0-28.045-31.502-29.049-30.953-1.003.55-16.807 18.223-16.807 18.223s22.878 29.954 26.089 36.095a198.575 198.575 0 0 1 9.231 21.567c2.308 9.037 4.365 16.575 5.017 18.073 1.455 4.194-2.941 34.848.671 43.535l31 2 1.09-2.5 31.106-1.697c2.86-9.985 0-37.594 1.706-41.787.552-1.598 2.86-9.985 5.368-19.62a107.072 107.072 0 0 1 9.483-17.424c4.415-5.542 26.239-36.295 26.239-36.295Z"/><path fill="#000" d="M1079.992 731.977v-39.431l-31.478-1.046a170.252 170.252 0 0 0-5.522 35.498c4.267 111.773 9.187 143.637 10.744 161.162 2.36 1.842 16.466 2.34 16.466 2.34s4.368-45.655 7.13-99.226c.903-22.902 2.66-59.297 2.66-59.297ZM1123.992 791.098c-.313-17.26-.365-56.158-2.088-66.373a340.576 340.576 0 0 0-9.551-35.225l-32.361 1.71v41.868s7.83 34.822 12.474 57.92l3.132 10.919a347.423 347.423 0 0 0-2.766 39.15 240.564 240.564 0 0 0 4.28 44.433 51.724 51.724 0 0 0 14.98-2.617s9.447-51.226 10.439-65.417c.991-14.19 1.461-26.368 1.461-26.368Z"/><path fill="#BFB500" d="M1061.103 546.405a23.634 23.634 0 0 1-3.111-10.746c.652-2.836 1.355-8.956 5.017-10.946.853-.448 3.261 0 3.462-2.687.351-4.03 8.378-4.229 9.282-4.278 2.883-.33 5.796-.33 8.68 0 3.11.497 9.33 2.09 15.05 12.488a24.184 24.184 0 0 1 2.509 7.86c0 .747-1.656 7.016-1.756 7.513-.3.657-.653 1.29-1.054 1.891 0 0-5.017-13.135-5.318-14.379-.3-1.243-26.54-1.641-28.196-.796a61.031 61.031 0 0 0-4.565 14.08Z"/><path fill="url(#s)" d="M972.67 474.562c1.176-.255 2.387.3 2.718 1.247l2.532 7.434c.15.463.064.955-.237 1.367-.302.413-.794.71-1.369.828-1.176.255-2.387-.3-2.718-1.247l-2.532-7.434a1.501 1.501 0 0 1 .237-1.367c.302-.413.794-.71 1.369-.828Z"/><path fill="url(#t)" d="M976.166 474.562c.845-.255 1.715.3 1.952 1.247l1.819 7.433c.227.95-.267 1.928-1.11 2.194-.855.259-1.738-.293-1.995-1.247l-1.775-7.432a1.94 1.94 0 0 1 .138-1.364c.21-.415.56-.715.971-.831Z"/><path fill="url(#u)" d="M979.184 472.552c.837-.228 1.687.318 1.943 1.248l1.81 7.44c.226.95-.266 1.93-1.104 2.196-.851.259-1.73-.294-1.987-1.248l-1.81-7.39c-.2-.973.302-1.957 1.148-2.246Z"/><path fill="url(#v)" d="M981.616 472.564c1.192-.259 2.423.293 2.782 1.247l2.534 7.432c.277.96-.43 1.927-1.607 2.195-1.177.255-2.39-.3-2.72-1.247l-2.534-7.383c-.32-.962.364-1.955 1.545-2.244Z"/><path fill="#FFF" d="M1194.727 480.644c-.962-.392-2.07.043-2.48.976l-3.115 7.291c-.19.456-.186.968.012 1.42.198.454.574.811 1.044.994a1.948 1.948 0 0 0 1.601.006 1.863 1.863 0 0 0 1.038-1.187l3.114-7.292c.222-.928-.297-1.872-1.214-2.208Z"/><path fill="#FFF" d="M1191.942 479.644c-.832-.392-1.79.043-2.147.976l-2.695 7.344c-.317.95.085 2.013.914 2.414.845.357 1.79-.095 2.147-1.027l2.695-7.293c.178-.455.181-.972.008-1.43a1.696 1.696 0 0 0-.922-.984ZM1188.13 476.658c-.695-.43-1.493.047-1.79 1.067l-2.247 7.977a2.921 2.921 0 0 0 .008 1.554c.143.496.414.887.754 1.086.694.43 1.492-.047 1.79-1.067l2.246-7.977a2.921 2.921 0 0 0-.008-1.554c-.143-.496-.415-.887-.754-1.086Z"/><path fill="#FFF" d="M1186.594 475.672a2.326 2.326 0 0 0-1.672-.032 2.031 2.031 0 0 0-1.178 1.075l-3.579 8.02c-.468 1.017.043 2.186 1.153 2.637 1.105.378 2.34-.109 2.79-1.098l3.578-7.8a1.765 1.765 0 0 0 .185-1.635c-.211-.543-.68-.97-1.277-1.167Z"/><path fill="#000" d="M1096.924 888.88a33.61 33.61 0 0 0-.461 13.466c.41 1.106 30.165 4.242 34.577 2.766a131.367 131.367 0 0 0 7.952-2.95s-.82-4.059-2.77-4.243c-1.95-.185-20.11-4.934-22.009-7.286-1.898-2.352-3.386-6.226-4.463-4.842-3.634 2.547-8.262 3.662-12.826 3.09Z"/><path fill="#22272C" d="m1069.65 895.097-12.319-.597a18.918 18.918 0 0 1-3.305 7.556c-2.103 3.28-5.358 6.66-5.008 9.246 0 1.69.851 3.43 2.454 3.628a32.94 32.94 0 0 0 14.022-.397 21.046 21.046 0 0 0 4.608-5.965c.894-2.12 1.121-4.46.65-6.711l-1.101-6.76Z"/><path fill="#000" d="m1069.76 893.08-12.385-.58a18.388 18.388 0 0 1-3.322 7.336c-2.115 3.185-5.387 6.418-5.035 8.976 0 1.593.755 2.944 2.366 3.137 4.674.86 9.49.712 14.096-.434a18.35 18.35 0 0 0 4.38-5.26 11.34 11.34 0 0 0 1.007-6.612l-1.107-6.564Z"/><path fill="#000" d="M1060.114 891.048c-1.431.808-2.122 8.46-2.122 8.888 0 .427 2.517.665 3.406.523 3.751-.618 5.232-6.75 4.343-8.603-.888-1.854-4.442-1.474-5.627-.808Z"/><path fill="#BFB500" d="M1078.074 513.693c5.542-.912 19.914 1.072 19.914 13.351.083 2.171-1.04 4.183-2.845 5.094 0 0-.687-3.753-6.328-5.04-5.64-1.287-9.22 6.005-14.175 5.362-4.954-.644-7.799.429-8.584-3.218-.784-3.646 5.74-14.423 12.018-15.55Z"/><path fill="#BFB500" d="M1093.992 529.245s4.196 0 5.371 2.178a5.055 5.055 0 0 1 .378 4.077c1.108-1.131 1.858-2.625 2.14-4.263.566-3.282-1.077-6.54-3.903-7.737l-3.986 5.745Z"/><path fill="#8C0C4F" d="M1244.992 575.5a39.27 39.27 0 0 1 17.92-5.418 46.307 46.307 0 0 1 18.474.802l1.606-20.068-4.618-19.316-28.362 5.017-5.02 20.972V575.5Z"/><path fill="url(#w)" d="M1281.357 868.5a17.342 17.342 0 0 0 2.768 7.881 7.405 7.405 0 0 1 0 6.955c-3.034 2.73-6.548 1.751-10.168 3.915-3.62 2.163-9.209 10.302-12.296 10.92-3.088.619-10.168.413-10.647-1.03-.479-1.442 6.92-6.49 6.92-6.49 11.073-13.188 12.297-19.42 12.297-19.42a88.98 88.98 0 0 1 11.126-2.731Z"/><path fill="url(#x)" d="M1258.581 891.216s-2.05 1.672-1.743 2.229c.308.557 3.538.456 4.358 0a82.993 82.993 0 0 0 18.868-13.88 10.48 10.48 0 0 0 2.358-5.065 8.65 8.65 0 0 1 2.512 7.142c-.275.95-.69 1.854-1.23 2.685a71.988 71.988 0 0 1-8.767 5.065c-3.538 2.179-8.409 10.131-11.434 10.74-3.025.607-13.022.556-13.484-.862-.461-1.418 5.076-5.927 8.562-8.054Z"/><path fill="#4F2718" d="M1284.992 879.5s-2.27 6.148-2.918 8.197a72.554 72.554 0 0 0-1.675 9.803h-1.513s1.783-12.628-4.702-8.862c-1.891 1.164 10.808-9.138 10.808-9.138Z"/><path fill="url(#y)" d="M1255.289 787.422c9.506 4.933 16.819 23.335 18.623 30.735 1.803 7.4 4.875 48.051 5.996 50.567 1.121 2.516-9.36 3.601-9.75 2.072a531.79 531.79 0 0 0-21.06-55.895c-1.756-3.651-9.068-20.474-9.751-22.2-2.681-8.831 10.53-8.14 15.942-5.28Z"/><path fill="url(#z)" d="M1289.179 834.057a18.728 18.728 0 0 0-1.115 8.197c.658 3.176 4.257 10.246 6.792 10.246 2.534 0 6.538-6.25 7.096-7.275a37.258 37.258 0 0 0 1.622-17.725l-14.395 6.557Z"/><path fill="#EA9C1F" d="M1253.699 611.84c4.294-3.124-2.587-18.152-13.557-31.543-19.093-23.21-21.783-33.477-29.907-28.617-8.124 4.86 0 14.185 13.453 36.057 10.504 17.309 21.111 30.55 30.01 24.103Z"/><path fill="#EA9C1F" d="M1310.229 584.09c-2.624-3.989-15.15-4.039-19.805-4.587-6.148-.043-12.29.407-18.368 1.346a123.108 123.108 0 0 0-17.725 4.986c-4.258 2.143-15.992 6.53-17.13 11.167-1.733 6.93 24.31 39.187 15.595 61.872-2.92 7.528-19.804 27.47-19.804 35.547 0 9.972 28.865 23.782 28.865 23.782l1.782.498 1.782.45s31.984 2.542 36.787-6.083c3.96-7.03-4.01-42.079-3.02-51.751 2.376-24.878 15.001-71.295 11.04-77.227Z"/><path fill="url(#A)" d="M1232.514 695.891c-4.13 6.416-5.036 18.388-4.28 34.098a388.244 388.244 0 0 0 8.761 56.274c2.87 14.043 16.517 14.498 19.387 3.738.806-2.93 7.855-63.195 7.603-70.014-.251-6.82 0-19.348-4.33-27.228-3.223-5.96-20.998-6.314-27.141 3.132Z"/><path fill="#EA9C1F" d="m1276.967 553.5-8.494 1.565-8.543 1.515a89.384 89.384 0 0 1 1.778 17.52c-1.57 3.872-3.842 8.902-6.708 11.9l17.967-4.731L1290 580c-3.709-1.832-6.052-6.33-8.835-9.435a90.542 90.542 0 0 1-4.198-17.065ZM1213.725 562.264c4.62-1.114 9.091-10.432 6.508-25.624-2.93-17.52-6.756-42.688-10.929-42.13-1.987.252-3.18 2.784-2.732 6.633.894 8.051-1.54 21.977-2.285 33.573-1.093 17.825.596 29.624 9.438 27.548ZM1304.037 599.488c4.84.493 9.68-14.763 11.23-31.692 2.565-29.232 7.31-38.386-.823-40.157-7.358-1.575-8.858 10.285-14.134 34.94-4.115 19.045-5.906 35.63 3.727 36.91Z"/><path fill="#EA9C1F" d="M1316.349 542.467c4.733-.407 7.482-13.521 4.224-30.499-3.766-19.316-8.805-47.019-12.978-46.46-5.7.814-2.85 24.806-3.156 44.223-.305 19.418 2.138 33.549 11.91 32.736ZM1246.992 545.745c0 12.957 10.645 23.654 17.21 23.754 6.567.1 15.172-10.345 16.615-23.402 1.442-13.058-6.218-21.444-15.918-21.595-9.7-.15-17.708 8.286-17.907 21.243Z"/><path fill="#C60C65" d="M1272.316 531.656c-1.353 3.903-5.074 5.322-13.047 6.133-4.904.703-9.034 4.195-10.728 9.073a197.593 197.593 0 0 0-2.416 28.638s-6.813-29.347 3.914-45.618c10.728-16.27 24.5-6.944 24.935-4.561.241 1.419-1.982 4.663-2.658 6.335Z"/><path fill="#C60C65" d="M1261.821 530.16s-.775 6.049 6.721 6.351c14.165.554 6.566 35.682 6.566 35.682s5.17 1.41 6.358-1.815c4.86-11.994 10.34-43.896-10.029-45.71-14.63-1.31-9.616 5.493-9.616 5.493Z"/><path fill="url(#B)" d="M1289.92 818.915s-2.183 15.281-1.903 17.003c.28 1.72 3.47 7.98 6.102 7.562 7.277-1.095 10.748-13.873 9.685-17.941-.672-2.347-1.176-4.85-1.736-6.467a23.21 23.21 0 0 0-3.023-6.572l-9.125 6.415Z"/><path fill="url(#C)" d="M1250.84 780.37c-4.546 5.998-4.192 9.829 5.05 17.64 9.244 7.813 37.276 25.958 38.74 24.395 1.465-1.562 6.718-7.863 3.132-9.778-2.424-1.31-3.434-5.04-7.223-10.433a267.22 267.22 0 0 0-17.172-21.521c-2.88-2.621-15.203-10.03-22.527-.303Z"/><path fill="url(#D)" d="M1303.58 705.25c1.668 7.262-1.872 18.475-7.99 32.652a374.195 374.195 0 0 1-27.966 48.459c-7.636 11.904-20.633 7.607-19.57-3.26.303-2.964 14.867-60.561 17.497-66.736 2.63-6.175 6.827-17.684 13.654-23.464 4.955-4.248 21.897 1.532 24.374 12.35Z"/><path fill="#EA9C1F" d="M1207.792 485.501c.626-.029 1.157.569 1.2 1.35l.28 6.146c.022.38-.08.754-.285 1.037-.203.283-.49.45-.795.462-.304.028-.603-.1-.83-.355a1.565 1.565 0 0 1-.37-.994l-.28-6.097c-.022-.384.08-.764.282-1.055.203-.29.49-.468.798-.494Z"/><path fill="#EA9C1F" d="M1208.79 485.504c.305-.028.604.1.83.355.227.255.36.613.37.994l.28 6.145c.023.379-.08.753-.284 1.036-.203.283-.49.45-.795.462-.304.028-.604-.1-.83-.355a1.564 1.564 0 0 1-.37-.994l-.28-6.145c-.023-.781.455-1.445 1.08-1.498ZM1212.266 485.5c.773-.003 1.422.516 1.5 1.2l.35 5.464c.027.337-.101.67-.356.922-.255.251-.614.4-.994.41a1.57 1.57 0 0 1-1.056-.313 1.243 1.243 0 0 1-.494-.886l-.35-5.42c-.03-.72.59-1.33 1.4-1.377Z"/><path fill="#EA9C1F" d="M1214.175 485.5c1.083-.003 1.992.513 2.1 1.193l.49 5.436c.039.34-.14.676-.494.933-.355.257-.857.414-1.396.437-1.095.026-2.025-.503-2.1-1.193l-.56-5.436c-.04-.716.828-1.323 1.96-1.37Z"/><path fill="#EA9C1F" d="M1214.046 505.5a89.635 89.635 0 0 0 3.946-10.952 57.732 57.732 0 0 0-1.894-9.048s-2.578 2.381-4.42 2.238c-1.841-.143-6.63-.905-6.63-.905a36.484 36.484 0 0 0-1.051 9.286 55.094 55.094 0 0 0 2.63 8.857l7.419.524ZM1311.35 458.503c-.461-.021-.917.077-1.266.274-.35.197-.563.476-.594.775l-.42 4.743c-.036.616.674 1.144 1.62 1.205.928.003 1.708-.451 1.8-1.05l.42-4.781c.033-.289-.113-.574-.406-.793-.292-.219-.708-.353-1.154-.373Z"/><path fill="#EA9C1F" d="M1308.292 456.504a1.9 1.9 0 0 0-1.245.355c-.34.255-.54.614-.555.994l-.42 6.098c-.033.384.12.764.424 1.055.304.29.734.468 1.196.494.928.004 1.707-.58 1.8-1.35l.42-6.147c.033-.38-.121-.754-.427-1.037a1.837 1.837 0 0 0-1.193-.462Z"/><path fill="#EA9C1F" d="M1306.21 456.504c-.307-.028-.61.1-.844.352a1.604 1.604 0 0 0-.395.997l-.28 6.097c-.023.81.473 1.496 1.12 1.549.626.029 1.157-.569 1.2-1.35l.28-6.146c.022-.38-.08-.754-.285-1.037-.203-.283-.49-.45-.795-.462ZM1302.892 456.504a1.435 1.435 0 0 0-1.056.358c-.29.258-.468.623-.494 1.014l-.45 6.098a1.516 1.516 0 0 0 1.35 1.525 1.459 1.459 0 0 0 1.5-1.372l.35-6.251a1.415 1.415 0 0 0-1.2-1.372Z"/><path fill="#EA9C1F" d="M1303.887 479.5a92.264 92.264 0 0 1-3.895-11.5 57.03 57.03 0 0 1 1.842-9.5s2.579 2.5 4.473 2.35c1.895-.15 6.632-.95 6.632-.95a42.839 42.839 0 0 1 1.052 9.7 66.902 66.902 0 0 1-2.631 9.3l-7.473.6Z"/><path fill="url(#E)" d="M1300.414 658.977c1.486-10.295 7.578-51.924 7.578-51.924s-2.774 2.388-6.785-2.486c-5.399-6.416-4.012-24.47-4.012-24.47l-7.478-.597a122.573 122.573 0 0 1-4.953 19.894 13.75 13.75 0 0 1-7.48 7.75 13.666 13.666 0 0 1-10.746-.04c-11.292-6.168-12.233-22.183-12.233-22.183l-8.024 3.979v32.328s7.529 22.282 4.656 33.273c-2.873 10.992-14.858 23.475-21.841 38.694-6.984 15.22 0 65.104 0 65.104s18.473 5.918 24.268 0a14.81 14.81 0 0 1 18.028-1.542c3.318 2.487 11.688 10.743 11.688 10.743s16.74-27.106 20.306-52.421c3.07-20.441-4.507-45.807-2.972-56.102Z"/><path fill="#000" d="M852.992 724.5a110.11 110.11 0 0 1 34.987-9.55c16.932-.95-25.195-105.45-25.195-105.45l-9.792 115Z"/><path fill="#935006" d="M951.617 789.631c-3.5-2.09-14.859-3.823-27.993 19.42-13.135 23.244-23.632 61.932-23.632 61.932l9.787 3.517s29.261-40.064 34.13-48.22c11.055-18.503 18.763-30.022 7.708-36.649Z"/><path fill="#000" d="M898.826 870.5a38.187 38.187 0 0 0-4.834 13.558c0 1.22 27.614 12.73 32.293 12.437 4.68-.293 8.639-.78 8.639-.78s.514-4.341-1.286-4.878c-1.8-.536-17.689-10.632-18.717-13.558-1.029-2.926-1.286-7.267-2.777-6.145a17.65 17.65 0 0 1-13.318-.634Z"/><path fill="#000" d="M934.391 895.265a63.671 63.671 0 0 1-9.663.654c-1.152-.234-15.973-8.45-24.485-11.81-2.453-1.027-4.506-2.148-5.508-2.568-1.001-.42-.7 2.52-.7 2.52v2.055s28.99 11.11 30.042 11.343c1.051.233 10.915-.607 10.915-.607l-.6-1.587Z"/><path fill="#935006" d="M933.4 644.831c3.12-17.753 13.224-48.846 4.16-52.714-11.786-4.959-43.68-4.612-43.68-4.612v.546s-31.2 7.14-41.105 15.273c-7.626 6.249 11.193 34.713 19.117 50.78a158.362 158.362 0 0 1 9.558 37.937c.445 4.016 1.238 22.563 2.872 30.1.446 2.232 25.901 11.06 35.162 11.357 7.23.248 30.656-18.993 30.508-21.274-.545-7.637-7.776-25.291-8.47-29.258-2.723-16.117-8.864-33.92-8.121-38.135Z"/><path fill="#935006" d="M866.883 619.742c4.992-4.114 4.144-13.077-3.794-22.09-7.938-9.011-14.378-14.252-16.475-16.554-2.097-2.302-13.879-16.996-17.623-20.375-3.34-3.722-9.036-4.298-13.08-1.323-3.295 2.792-2.197 11.902 2.147 19.592 4.343 7.69 35.396 51.77 48.825 40.75ZM906.406 578.988c-1.223-3.073-5.401-18.488-5.401-18.488l-10.854 1.463v.537l-10.904 1.463s.51 15.952.255 19.22c-.255 3.268-8.51 9.317-8.51 9.317l48-5.805s-11.16-4.634-12.586-7.707Z"/><path fill="#935006" d="M903.992 574.64a835.236 835.236 0 0 1-3.71-13.602l-.792-.538-9.895 1.37v.538l-10.588 1.468s.495 16 .247 19.278c-.247 3.279-8.262 9.346-8.262 9.346h1.039l20.532-8.66a97.825 97.825 0 0 0 11.38-9.053l.049-.146ZM902.065 697.507c-13.484-.302-18.92 8.867-19.073 37.182a362.944 362.944 0 0 0 6.87 70.031c1.795 4.484 18.202 2.771 20.1.252 1.896-2.52 8.87-65.497 9.023-74.767.154-9.27-2.256-32.345-16.92-32.698Z"/><path fill="#935006" d="M898.551 797.5c-3.888 0-13.026 5.442-12.54 31.846.486 26.404 10.84 65.154 10.84 65.154h9.235s4.86-51.448 4.86-60.82c.243-21.315-.048-36.18-12.395-36.18ZM932.597 699.688c13.088-1.616 19.306 6.92 22.365 35.354a341.72 341.72 0 0 1 .752 66.718c-1.304 4.596-16.899 4.495-19.005 2.172-2.106-2.323-16.197-60.607-17.3-69.698-1.104-9.09-1.003-32.727 13.188-34.546ZM927.15 612.228c-5.637-3.623-5.844-12.831 1.242-22.945 7.085-10.113 13.033-16.252 14.947-18.818 1.914-2.566 12.206-18.92 15.516-22.844 3.073-4.085 8.788-5.314 13.344-2.868 3.724 2.465 3.724 11.875 0 20.127-3.724 8.251-30.101 57.059-45.049 47.348ZM823.382 572.578c-5.049 2.174-10.097 1.365-16.862-12.031-6.765-13.397-18.528-46.508-18.528-46.508l7.926-3.539s19.689 23.406 23.677 30.331c3.989 6.926 16.61 26.035 3.787 31.747ZM908.476 546.134c2.594 13.802-4.988 29.533-13.816 31.207-8.828 1.675-21.497-10.148-24.09-23.9-2.594-13.751 3.79-26.64 14.264-28.67 10.474-2.03 21.098 7.56 23.642 21.363Z"/><path fill="#000" d="M871.996 557.5a25.521 25.521 0 0 1-4.994-10.398c0-3.067-.35-9.461 2.996-12.269.75-.624 3.196-.727 2.896-3.43-.45-4.264 7.39-5.98 8.239-6.24a39.308 39.308 0 0 1 8.538-1.663c3.146 0 9.537.312 17.376 9.826a26.874 26.874 0 0 1 3.945 7.59c0 .832-.3 7.538-.3 8.058-.17.748-.404 1.479-.699 2.183 0 0-7.59-12.529-7.939-13.776-.35-1.248-26.314 3.483-27.762 4.73a66.593 66.593 0 0 0-2.296 15.389Z"/><path fill="#935006" d="M783.626 494.562c1.174-.255 2.385.3 2.715 1.247l2.591 7.434c.277.96-.43 1.927-1.604 2.195-1.175.255-2.385-.3-2.715-1.247l-2.53-7.434c-.17-.457-.1-.95.19-1.364.292-.415.78-.715 1.353-.83Z"/><path fill="#935006" d="M786.625 493.574a2.663 2.663 0 0 1 1.702.154c.517.235.891.63 1.036 1.091l2.552 7.426c.318.949-.375 1.927-1.556 2.193-1.185.255-2.405-.3-2.738-1.246l-2.552-7.426c-.318-.948.375-1.926 1.556-2.192Z"/><path fill="#935006" d="M790.43 491.562c1.007-.255 2.044.3 2.327 1.247l2.17 7.433c.27.95-.32 1.928-1.323 2.194-1.02.259-2.075-.293-2.381-1.247l-2.17-7.432a1.707 1.707 0 0 1 .204-1.368c.258-.412.68-.71 1.172-.827Z"/><path fill="#935006" d="M793.612 491.564c1.19-.259 2.42.293 2.777 1.247l2.53 7.432c.15.463.065.956-.236 1.368-.301.412-.794.71-1.368.827-1.175.255-2.386-.3-2.716-1.247l-2.53-7.433c-.316-.95.372-1.928 1.543-2.194Z"/><path fill="#935006" d="M798.375 518.5c.85-5.116 1.39-10.278 1.617-15.458a82.295 82.295 0 0 0-4.904-11.542s-2.452 3.813-4.748 4.122c-2.296.31-8.348.515-8.348.515a55.091 55.091 0 0 0 1.409 12.573 38.95 38.95 0 0 0 3.548 7.317l11.426 2.473Z"/><path fill="url(#F)" d="M963.585 559.563c5.044 2.19 10.087 1.393 16.896-11.795 6.81-13.188 18.511-45.784 18.511-45.784l-7.919-3.484s-19.67 23.042-23.655 29.86c-3.984 6.818-16.644 25.63-3.833 31.203Z"/><path fill="#935006" d="M1006.764 485.701a2.96 2.96 0 0 0-1.703-.134c-.57.123-1.037.407-1.289.782l-4.487 5.876c-.303.363-.375.798-.197 1.199.177.402.587.734 1.132.917 1.106.364 2.43.083 3.054-.648l4.487-5.918c.542-.764.098-1.688-.997-2.074Z"/><path fill="#935006" d="M1003.952 483.69c-.986-.428-2.19-.111-2.729.718l-4.01 6.557c-.498.847-.13 1.882.836 2.344.987.429 2.19.112 2.729-.717l4.01-6.557c.468-.85.106-1.866-.836-2.344ZM999.884 482.66c-.974-.376-2.153-.068-2.644.69l-4.022 5.867c-.248.371-.294.805-.128 1.203.166.398.53.726 1.01.911.96.382 2.133.095 2.644-.647l4.022-5.91c.248-.371.294-.805.128-1.203-.166-.398-.53-.726-1.01-.911Z"/><path fill="#935006" d="M997.054 480.69a1.807 1.807 0 0 0-2.378.72l-3.494 6.565a1.714 1.714 0 0 0 .728 2.3c.408.233.897.288 1.348.152a1.693 1.693 0 0 0 1.03-.871l3.494-6.517c.222-.406.27-.883.133-1.324a1.73 1.73 0 0 0-.86-1.024Z"/><path fill="#935006" d="M986.992 505.5c.307-5.03.92-10.038 1.833-15a78.467 78.467 0 0 1 7.332-10s1.57 4.15 3.77 5c2.2.85 8.065 2.2 8.065 2.2a53.32 53.32 0 0 1-4.137 11.6 37.423 37.423 0 0 1-5.237 6.2h-11.626Z"/><path fill="#000" d="m906.874 895.095-12.338-.595a18.876 18.876 0 0 1-3.297 7.538c-2.098 3.273-5.345 6.695-5.245 9.274 0 1.687.9 3.422 2.448 3.62 4.67.873 9.474.738 14.087-.396a21.738 21.738 0 0 0 4.545-5.951 11.38 11.38 0 0 0 .7-6.696c0-1.834-.9-6.794-.9-6.794Z"/><path fill="#000" d="m906.973 893.125-12.397-.625a18.021 18.021 0 0 1-3.312 7.355c-2.108 3.172-5.37 6.44-5.27 8.94 0 1.635.803 2.98 2.36 3.173 4.677.834 9.489.686 14.102-.433a17.107 17.107 0 0 0 4.366-5.287 11.196 11.196 0 0 0 1.054-6.586c0-1.778-.903-6.537-.903-6.537Z"/><path fill="#000" d="M896.37 890.062c-1.604.888-2.378 9.348-2.378 9.818 0 .47 2.821.731 3.817.574 4.26-.678 5.863-7.467 4.923-9.452-.94-1.984-4.978-1.67-6.361-.94ZM883.416 528.778c5.32-.924 19.325 0 19.576 9.84 0 3.233-6.475 6.882-6.475 6.882s3.062-5.682-2.41-6.513c-5.47-.832-8.833 4.989-13.652 4.62-4.819-.37-7.53.6-8.382-2.218-.854-2.818 5.22-11.502 11.343-12.61Z"/><path fill="#000" d="M899.992 538.687a9.589 9.589 0 0 1 2.958 5.316 4.645 4.645 0 0 1-1.268 3.497 4.935 4.935 0 0 0 3.146-1.912 10.846 10.846 0 0 0 .939-7.088l-5.775.187Z"/><path fill="#002D56" d="M881.992 698.082v33.423c0 12.954 4.01 57.995 4.01 57.995h27.473l6.517-55.029-4.06-37.971-33.94 1.582Z"/><path fill="#00233F" d="m943.946 688.5-27.954 8.216 4.087 38.477 10.092 53.307 29.821-1.052s-.807-38.277-3.179-53.307a211.453 211.453 0 0 0-12.867-45.641Z"/><path fill="url(#G)" d="M882.083 697.321a300.384 300.384 0 0 0-10.212-37.119c-5.106-12.524-12.51-34.896-18.434-38.33-5.923-3.435 8.273-26.06 8.273-26.06l12.97-5.05s12.56 7.677 22.62 6.414 17.106-12.676 17.106-12.676 15.727 5.707 15.727 4.545c0-1.161 13.276 19.19 12 22.979a145.75 145.75 0 0 0-3.268 34.593c.97 10.1 6.127 41.058 6.127 41.058a69.86 69.86 0 0 1-28.288 8.283 216.822 216.822 0 0 1-34.62 1.363Z"/><path fill="url(#H)" d="M834.722 565.5s24.668 26.727 25.929 26.525c1.26-.202 3.38-1.516 3.733.808.353 2.324 12.005-3.435 12.005-3.435a198.145 198.145 0 0 1 5.6 47.896c-1.11 20.917-14.074 60.629-15.537 75.078-1.463 14.45-1.463 17.128-1.463 17.128l-10.846-2.678s-.454-98.218-3.48-102.563c-3.027-4.345-30.671-38.499-30.671-38.499a44.036 44.036 0 0 0 12.056-8.235 14.72 14.72 0 0 0 2.674-12.025Z"/><path fill="url(#I)" d="M913.992 586.139s10.891 15.416 13.02 52.615c2.129 37.198 6.732 83.746 6.732 83.746l20.446-5.52s-11.09-96.477-10.545-101.003c.545-4.525 15.743-25.91 19.802-30.634a25.846 25.846 0 0 0 5.545-10.294s-7.97-10.792-14.406-13.03c-6.436-2.237-7.92-1.342-7.92-1.342a226.418 226.418 0 0 1-15.248 20.787c-.644-.845-3.07-1.293-3.07 0s-1.534 4.973-2.128 3.233c-.594-1.74-3.664 0-4.604.646a29.574 29.574 0 0 1-7.624.796Z"/><rect width="33" height="11" x="882.992" y="785.5" fill="#375987" rx="1.05"/><rect width="32" height="11" x="927.992" y="785.5" fill="#375987" rx="1.05"/><path fill="#585B67" d="m297.308 669.4-6.978.48-.33 2.72h10z"/><path fill="#431CA3" d="M318.93 681.74c.427-2.558-1.134-5.027-3.616-5.718l-1.607-.404-13.357-2.935v-.304a3.39 3.39 0 0 0-2.46-3.794 2.746 2.746 0 0 0-2.227.507 2.789 2.789 0 0 0-1.087 2.022l-33.142-7.336v-.304a3.49 3.49 0 0 0-2.56-3.794 2.745 2.745 0 0 0-2.21.49 2.788 2.788 0 0 0-1.105 1.989v.303l-13.106-2.884-1.657-.404c-2.41-.506-10.495 0-10.796 2.782l3.013 27.475 1.858.404-2.712 26.007c-.323 2.473 1.19 4.814 3.565 5.516l63.622 15.584c2.21.455 10.043-1.822 10.696-4.301l3.414-24.287 2.009-.759 3.465-25.855Z"/><path fill="#585B67" d="m258.462 661-7.462.466s.964 3.648 1.32 3.531c.355-.116 8.68-.854 8.68-.854L258.462 661Z"/><path fill="#000" d="m309.923 682.5-7.02 50.795a3.946 3.946 0 0 1-1.49 2.85 3.97 3.97 0 0 1-3.122.8l-69.64-14.998a5 5 0 0 1-3.61-5.45l5.566-51.544a3.995 3.995 0 0 1 1.433-3.018 4.02 4.02 0 0 1 3.23-.882l71.344 15.848a4.998 4.998 0 0 1 3.309 5.6Z"/><path fill="#C8C7C6" d="M290.149 669.061a3.202 3.202 0 0 0-2.498.541 2.937 2.937 0 0 0-1.219 2.158l-.394 3.13c-.269 1.821.911 3.552 2.76 4.048a3.203 3.203 0 0 0 2.477-.523 2.941 2.941 0 0 0 1.239-2.122l.45-3.184c.263-1.837-.945-3.574-2.815-4.048ZM251.093 661.06a3.25 3.25 0 0 0-2.506.536 2.896 2.896 0 0 0-1.224 2.135l-.339 3.15c-.213 1.835 1.004 3.549 2.883 4.058a3.19 3.19 0 0 0 2.486-.537 2.84 2.84 0 0 0 1.187-2.133l.396-3.15c.213-1.836-1.004-3.55-2.883-4.058Z"/><path fill="#431CA3" d="M311.953 683.087 308.424 709 227 691.27l2.784-26.266a4.114 4.114 0 0 1 1.569-3.154 3.977 3.977 0 0 1 3.402-.736l73.917 16.518c2.232.794 3.603 3.075 3.281 5.455Z"/><path fill="#AEAEAE" d="M275 694.417 259.771 691l-.771 6.583L274.229 701z"/><path fill="#C8C7C6" d="m258.919 698-.919 7.472L275.027 709l.973-7.472z"/><path fill="#5B5C6D" d="m308.072 708.54 5.928-.48-1.928.6-.144.8-5.928.48.337-1.72z"/><path fill="#585B67" d="M255 660.95s3.104-10.768 21.17-9.9c18.93 1.633 22.696 6.685 21.678 17.505a5.382 5.382 0 0 1-6.463.663s9.822-13.116-14.248-14.749c-8.092 0-12.519 0-19.49 7.655-2.698.51-2.647-1.173-2.647-1.173Z"/><path fill="url(#J)" d="M51.388 215.546a83.027 83.027 0 0 1 3.62 9.346c-.685.553-1.419 1.056-2.152 1.558a181.637 181.637 0 0 1-18.492 10.05c-2.641-5.678-4.451-14.421-7.484-20.1-7.485-13.818-16.78-55.877-15.8-60.298 3.032-13.97 6.065-27.939 8.56-41.958 1.37-7.84 4.892-22.713 13.55-25.98.64-.214 1.294-.382 1.957-.502 14.089-2.16 16.632 17.788 15.654 27.738a107.837 107.837 0 0 1-6.066 23.918c-4.256 12.613-9 12.512-5.625 25.728 3.522 13.718 6.163 37.687 12.278 50.5Z" transform="translate(221.992 444.5)"/><path fill="#000" d="m278.165 877.657 4.113-7.657 23.521.39-2.758 5.463a82.837 82.837 0 0 0 16.6 7.12 82.169 82.169 0 0 0 13.542 3.025s4.563 1.804 3.71 4.487c-1.554 4.877-34.454 1.22-35.557.878-2.508-.78-5.016-1.61-7.222-2.439l-1.254 1.512-14.645-1.56-.652-.342c-1.554-.732.602-10.877.602-10.877Z"/><path fill="#000" d="m237.732 883.183 3.726-7.572 23.618-.611-2.468 5.408a57.529 57.529 0 0 0 13.244 7.008 58.165 58.165 0 0 0 16.014 3.621c2.266.423 2.72 2.493 3.777 3.95.44.606.476 1.392.092 2.03-.384.638-1.122 1.018-1.905.98l-28.553-1.787-3.474-.846a171.28 171.28 0 0 1-7.352-2.07l-1.159 1.552-14.805-.893-.654-.282c-1.813-.659-.101-10.488-.101-10.488Z"/><path fill="url(#K)" d="m86.102 224.5 15.906 105.24s-17.695 60.637-14.564 103.384c-27.09 2.405-31.662-7.517-31.662-7.517s3.18-75.17 6.163-92.01a541.033 541.033 0 0 0-35.937-107.894l60.094-1.203Z" transform="translate(221.992 444.5)"/><path fill="url(#L)" d="m89.008 224.652-7.12 107.627S57.594 395.913 52.018 437.5c-31.167-5.512-33.009-5.512-33.009-5.512s19.267-84.227 24.296-100.21A605.142 605.142 0 0 0 23.987 223.5l65.021 1.152Z" transform="translate(221.992 444.5)"/><path fill="url(#M)" d="M77.008 62.551c-.635.421-1.21.932-1.707 1.519-2.195 2.327-1.952 6.224-2.78 8.653a13.722 13.722 0 0 1-4.879 5.769c-7.463 5.06-24.634-10.576-24.634-10.576s9.756-18.167 9.415-21.356c-.342-3.188 5.853-5.06 5.853-5.06l18.732 21.051Z" transform="translate(221.992 444.5)"/><path fill="url(#N)" d="M58.779 46.286c1.73 2.173 2.545 5.357 4.734 7.025 1.221.91.967 1.415 5.09 5.407a13.92 13.92 0 0 0 4.276 2.476L82.6 65.69c.81.42 1.69.694 2.596.809a6.377 6.377 0 0 0 5.09-2.628c.248-.222.44-.5.56-.808.51-1.264-1.018-2.78-.356-3.942.661-1.162 1.069-.809 1.527-1.314a3.114 3.114 0 0 0 .305-2.78c0 1.112 1.985-1.97 1.935-1.92.763-1.162.305-1.06 1.68-1.415 1.374-.353 1.883 0 2.952-.707 2.85-2.274-.51-5.357-1.68-7.48a7.039 7.039 0 0 1-1.425-4.75c1.527-6.215 4.479-10.106 2.443-17.181a23.22 23.22 0 0 0-10.18-13.038 30.02 30.02 0 0 0-25.452-2.173 20.702 20.702 0 0 0-7.024 4.043 18.202 18.202 0 0 0-3.767 5.053 25.111 25.111 0 0 0-2.698 13.746A21.205 21.205 0 0 0 54.86 41.89c.967 1.617 2.596 2.88 3.92 4.396Z" transform="translate(221.992 444.5)"/><path fill="#AD008C" d="M274.441 493.9a3.974 3.974 0 0 1-1.116-1.42c-6.156-12.462-5.716-27.362 1.165-39.403 3.239-4.146 7.844-6.877 12.911-7.657 9.155-1.605 18.494 1.446 25.143 8.215a3.663 3.663 0 0 1 1.456 2.282 14.12 14.12 0 0 0-4.271-1.42c-9.077-.913-2.913 7.303-2.524 11.157.066 1.474-.526 2.897-1.602 3.854-2.71 2.117-4.577 5.205-5.242 8.671-.583 2.13-1.7 4.159-2.087 6.289-.292 1.369.29 3.245-1.262 3.904-.68.305-3.107-1.115-3.058-1.42.24-1.952.24-3.93 0-5.882-.174-1.97-1.08-3.791-2.524-5.071a4.406 4.406 0 0 0-5.242-.406c-3.01 2.333-2.719 10.903-3.35 14.554a3.33 3.33 0 0 1-.68 1.826 2.808 2.808 0 0 1-1.504.71l-4.368 1.166a2.747 2.747 0 0 1-1.796 0l-.049.05Z"/><path fill="#125CAE" d="M294.516 519.684c.799 2.436 2.746-.254 3.994 4.263a213.87 213.87 0 0 1 6.541 33.798c.4 4.263.9 10.15.949 17.255-12.133-16.392-23.068-25.374-29.16-33.494a97.614 97.614 0 0 1-13.681-22.482c-.603-3.29.534-6.66 2.996-8.881 7.34-7.105 23.418 5.734 23.418 5.734l4.943 3.807Z"/><path fill="#F1F2F2" d="M269.714 502 298 520.575 290.16 524 265 511.6z"/><path fill="url(#O)" d="M92.9 228.5H19.009a436.66 436.66 0 0 0 2.794-59.46c0-9.96-1.447-19.92-1.996-28.983a109.356 109.356 0 0 1 2.695-33.963l8.382-18.425L42.907 67.5l13.322 6.723a86.242 86.242 0 0 1 23.949 28.485C89.508 121.034 93.2 136.023 93 184.826c-.15 9.91-.299 25.248-.1 43.674Z" transform="translate(221.992 444.5)"/><path fill="#001A43" d="M267.025 505s26.887 24.887 36.975 48c-17.642-17.994-24.848-18.044-24.848-18.044v-12.672l-7.356 6.437-8.796-17.74 4.025-5.981ZM274 642h23v8h-23z"/><path fill="url(#P)" d="M126.752 192.552c.513-.244 2.515.44 3.029.538l6.007 1.124c3.851.783 7.24 2.787 11.04 3.618 1.13.244 5.134.586 5.596 1.662a.75.75 0 0 1 0 .782c-2.105 4.057-7.29 1.466-10.269.587-1.18-.294-2.567-.294-3.8-.538l7.6 6.746c1.591 1.32 9.55 7.626 7.804 9.385-.821.831-2.362 0-3.132-.586a82.407 82.407 0 0 1-9.807-7.088l7.702 6.697c1.181 1.026 5.545 5.28 3.748 6.892a1.602 1.602 0 0 1-1.9 0 51.494 51.494 0 0 1-10.833-9.776l7.547 8.065c.668.734 1.849 2.2 1.181 3.324-.667 1.125-2.67.294-3.44-.293a71.42 71.42 0 0 1-9.14-8.212c1.49 2.933 8.832 10.07 5.751 10.021a3.83 3.83 0 0 1-2.259-1.027L128.6 216.8a42.974 42.974 0 0 1-5.494-4.889c-1.694-1.906-3.03-3.324-5.135-4.888a90.777 90.777 0 0 1-11.963-12.123l20.744-2.347Z" transform="translate(221.992 444.5)"/><path fill="url(#Q)" d="M54.045 87.1c7.46 1.89 12.87 8.318 13.43 15.96.4 10.225 2.755 19.951 4.058 29.927 1.303 9.975 5.562 14.613 12.878 21.347 9.42 8.678 30.667 23.84 30.667 23.84a82.721 82.721 0 0 1 13.93 13.119c-4.159 5.586-8.118 11.371-11.926 17.207-8.268-4.24-48.155-23.542-57.475-29.078-9.32-5.536-31.568-52.221-30.566-65.339.751-12.02 10.172-31.223 25.004-26.983Z" transform="translate(221.992 444.5)"/><path fill="#000" d="m477.436 881.965-3.352-7.657L451.47 873l2.201 5.427-28.468 9.692a21.567 21.567 0 0 0-3.852 3.974 1.793 1.793 0 0 0-.139 1.91 1.91 1.91 0 0 0 1.69.997l27.868-.872 3.302-.727h.25c2.451-.582 5.003-1.163 7.104-1.793l1.101 1.55 14.159-.436.7-.242c1.351-.678.05-10.515.05-10.515Z"/><path fill="#000" d="m505.685 886-3.102-8-22.564-2 2.002 5.7-28.718 9.3a22.757 22.757 0 0 0-3.902 3.8 1.999 1.999 0 0 0 1.55 3.2h27.667l3.352-.65h.25c2.452-.5 5.004-1.05 7.155-1.65l1 1.65h14.16l.7-.25c1.4-.7.45-11.1.45-11.1Z"/><path fill="#000" d="M455.599 675 448 777.474a902.5 902.5 0 0 1 1.135 101.673C475.089 881.499 478.74 882 478.74 882s8.043-82.25 4.934-98.369C493.938 731.368 508 676.201 508 676.201L455.599 675Z"/><path fill="#0E2C40" d="m453 678.34 2.26 101.146s13.155 63.808 18.629 103.938c31.935 2.094 35.148-2.193 35.148-2.193s-11.398-86.69-16.268-102.194A572.781 572.781 0 0 1 512 675l-59 3.34Z"/><path fill="#7C2E1C" d="m492.875 710.16-6.875 1 .114 2.68L496 713z"/><path fill="#0C0B63" d="M515 718.884c.043-2.408-1.664-4.499-4.048-4.956h-1.6l-13.092-1.388a3.18 3.18 0 0 0-2.748-3.27 2.663 2.663 0 0 0-2.09.672 2.616 2.616 0 0 0-.859 2.004l-32.43-3.32v-.298a3.329 3.329 0 0 0-2.849-3.32 2.661 2.661 0 0 0-2.041.728 2.615 2.615 0 0 0-.807 1.997v.298l-12.793-1.338h-1.649c-2.348-.248-9.994 1.189-9.994 3.716l5.797 25.522h1.799v24.779c-.05 2.392 1.633 4.477 3.997 4.956L502.007 773c2.149 0 9.644-2.825 9.744-5.203l.65-23.193 1.799-.942.8-24.778Z"/><path fill="#000" d="M455.092 705 448 706.735c.418 1.826 1 3.592 1.735 5.265.357 0 8.265-2.478 8.265-2.478L455.092 705Z"/><path fill="#000" d="m506.974 719.612-1.202 50.268a3.946 3.946 0 0 1-1.108 2.956 3.828 3.828 0 0 1-2.9 1.16l-68.384-6.76c-2.39-.468-4.102-2.612-4.058-5.082l-.3-50.827a3.949 3.949 0 0 1 1.043-3.113 3.828 3.828 0 0 1 3.014-1.208l70.138 7.421c2.383.485 4.011 2.732 3.757 5.185Z"/><path fill="url(#R)" d="M108.568 254.508a3.508 3.508 0 0 0-2.526.822c-.678.587-1.053 1.407-1.033 2.26v3.193c-.024 1.842 1.442 3.418 3.436 3.697.93.1 1.861-.179 2.546-.761.686-.582 1.056-1.41 1.014-2.264v-3.193c.054-1.863-1.419-3.472-3.437-3.754Z" transform="translate(376.992 455.5)"/><path fill="url(#S)" d="M71.54 250.52a3.334 3.334 0 0 0-2.546.779c-.681.595-1.04 1.438-.98 2.3v3.192c.013 1.869 1.516 3.444 3.526 3.695a3.33 3.33 0 0 0 2.481-.784c.665-.58 1.024-1.397.984-2.24v-3.247c-.007-1.85-1.478-3.419-3.465-3.695Z" transform="translate(376.992 455.5)"/><path fill="#431CA3" d="M508 721.745 507.409 747l-79.396-8.182V713.26a3.999 3.999 0 0 1 1.128-3.122 3.782 3.782 0 0 1 3.056-1.12l71.766 7.677c2.368.444 4.076 2.58 4.037 5.05Z"/><path fill="url(#T)" d="m98.008 281.11-15.949-1.61-.051 6.39 15.897 1.61z" transform="translate(376.992 455.5)"/><path fill="url(#U)" d="m82.06 285.5-.052 6.558 15.897 1.442.103-6.512z" transform="translate(376.992 455.5)"/><path fill="#000" d="m506.935 744.72 6.065-1-1.882.76v.76L505 746.28l.052-1.72zM452 706.627s1.79-10.446 18.785-11.595c17.941-.45 22.016 3.898 22.215 14.194a4.95 4.95 0 0 1-6.013 1.25s7.852-13.345-14.91-12.296c-7.553 1.05-11.728 1.2-17.443 9.297-2.485.75-2.634-.85-2.634-.85Z"/><path fill="url(#V)" d="M82.008 62.184a55.248 55.248 0 0 0 8.986 14.686c3.695 2.744 24.014-4.37 24.014-4.37s-7.339-19.26-6.34-22.309c.998-3.049-4.993-5.691-4.993-5.691L82.008 62.184Z" transform="translate(376.992 455.5)"/><path fill="url(#W)" d="M102.917 47.66c-1.941 1.809-3.106 4.774-5.387 6.132-1.261.703-1.067 1.206-5.386 4.523a13.359 13.359 0 0 1-4.367 1.76l-9.705 3.015a6.438 6.438 0 0 1-2.572.402c-1.784-.375-3.314-1.554-4.173-3.216a2.708 2.708 0 0 1-.389-.855c-.29-1.307 1.31-2.563.874-3.77-.437-1.206-.922-.955-1.262-1.508a3.322 3.322 0 0 1 0-2.714c-.728 0-1.31-.754-1.455-1.558a6.693 6.693 0 0 0-.389-2.362c-.582-1.106-1.99-1.307-3.154-1.86a.968.968 0 0 1-.485-1.206 20.065 20.065 0 0 1 2.523-5.027 6.837 6.837 0 0 0 1.99-4.373 20.934 20.934 0 0 0-.922-2.965c-.117-2.2.248-4.4 1.067-6.434.23-1.666.36-3.344.389-5.026a7.021 7.021 0 0 1 1.746-4.524c3.446-3.318 4.853-7.339 9.22-9.45 7.772-3.373 16.625-2.74 23.875 1.71 4.233 2.027 7.428 5.831 8.783 10.454a25.68 25.68 0 0 1 .63 13.672c-1.04 4.554-3.537 8.61-7.084 11.51-1.31 1.408-2.96 2.363-4.367 3.67Z" transform="translate(376.992 455.5)"/><path fill="url(#X)" d="M31.453 171.639c-.398-.313-2.24 0-2.688 0h-5.377c-3.436 0-6.722 1.354-9.958 1.458-.995 0-4.331-.313-4.978.572a.757.757 0 0 0 0 .781c1.045 4.218 6.024 2.656 8.862 2.448h3.335l-8.115 5.206c-1.593.99-9.559 5.571-8.414 7.55.598.937 2.091.312 2.838 0a69.154 69.154 0 0 0 9.708-5.207L8.9 189.654c-1.195.78-5.726 4.061-4.481 5.935a1.26 1.26 0 0 0 1.593.417 45.608 45.608 0 0 0 11.103-7.29l-7.966 6.353c-.697.52-1.992 1.718-1.594 2.916.399 1.197 2.24.78 3.037.364a65.65 65.65 0 0 0 9.56-6.352c-1.793 2.5-9.41 8.018-6.722 8.487a3.129 3.129 0 0 0 2.141-.573l10.455-5.207a40.705 40.705 0 0 0 5.577-3.748c1.842-1.458 3.236-2.552 4.978-3.957a25.196 25.196 0 0 0 5.427-6.873l-10.555-8.487Z" transform="translate(376.992 455.5)"/><path fill="#000" d="M487.462 508.32a28.687 28.687 0 0 0 1.664-3.227 122.357 122.357 0 0 0 3.916-12.459A50.297 50.297 0 0 0 495 479.431a22.361 22.361 0 0 0-3.818-12.608 20.226 20.226 0 0 0-9.985-7.247 32.845 32.845 0 0 0-12.432-1.49 42.662 42.662 0 0 0-9.397 1.49 15.51 15.51 0 0 0-4.503 1.489c-1.175.744-1.909 1.886-3.328 2.432a12.472 12.472 0 0 1-5.53.993 1.545 1.545 0 0 0-.833 0c-.392.347 0 .993 0 1.44 3.426 8.537 14.683 7.743 17.767 16.677a34.08 34.08 0 0 1 1.175 6.304c.293 2.085 1.076 4.22 1.223 6.304 0 1.34-.734 3.028.685 3.922a4.846 4.846 0 0 0 3.182-.943 21.432 21.432 0 0 1 .587-5.61 7.296 7.296 0 0 1 3.133-4.516 4.453 4.453 0 0 1 5.237.397 7.23 7.23 0 0 1 1.126 6.403c-.187 3.463-2.467 6.447-5.727 7.495a4.157 4.157 0 0 1 2.545 3.177c.071.34.242.652.49.893.272.076.56.076.832 0 3.62-.299 7.105 1.46 9.054 4.567a11.42 11.42 0 0 1 .98-2.68Z"/><path fill="#BCBEC0" d="M463.208 524.963c-.789 2.278-1.874 5.794-3.107 9.904a195.876 195.876 0 0 0-6.164 31.841A159.86 159.86 0 0 0 453 583c11.589-15.5 22.043-23.819 27.813-31.593a88.6 88.6 0 0 0 13.02-21.046 8.736 8.736 0 0 0-2.861-8.32c-6.953-6.734-22.29 5.349-22.29 5.349l-5.474-2.427Z"/><path fill="#16405E" d="M488.51 544.067c-7.264.364-13.49 5.37-15.474 12.442-2.274 9.594-6.278 18.438-9.343 27.781-3.066 9.344-7.86 12.842-15.968 17.888-10.382 6.496-26.251 14.241-26.251 14.241A82.502 82.502 0 0 0 406 626.412c2.867 6.096 5.487 12.342 8.009 18.588 8.503-2.498 38.906-15.54 48.695-19.037 9.788-3.498 39.55-41.023 40.933-53.665 1.335-11.692-.445-29.53-15.127-28.23Z"/><path fill="#E6E7E8" d="M485.463 513 461 524.2l4.833 10.8L490 522.65z"/><path fill="#0F2E4F" d="M448.013 680H515a394.37 394.37 0 0 1-5.01-56.977c0-10.057 0-19.31.751-28.211a114.865 114.865 0 0 0-3.056-34.347l-4.359-17.802L491.852 523l-12.926 6.537a83.557 83.557 0 0 0-23.148 27.81c-9.018 17.852-7.816 32.838-7.615 80.461.05 9.655.05 24.189-.15 42.192Z"/><path fill="#16405E" d="M488.254 516S462.61 539.856 453 562c16.818-17.464 23.585-17.464 23.585-17.464v-12.129l7.011 6.14L491 522.19l-2.746-6.19Z"/><path fill="url(#Y)" d="M93.276 221.5a21.813 21.813 0 0 0-4.146 5.66 20.405 20.405 0 0 0-2.122 6.92c1.013 4.14.82 7.599 1.736 12.316a3.372 3.372 0 0 0 2.17.944 3.31 3.31 0 0 0 2.41-.944 4.6 4.6 0 0 0 2.267.944 4.539 4.539 0 0 0 3.23-.944c.843.526 1.78.848 2.749.944a6.097 6.097 0 0 0 2.99-.577c.42.43.966.69 1.542.734.793.044 1.547-.376 1.977-1.1.82-7.129.82-12.685 1.929-19.08L93.276 221.5Z" transform="translate(376.992 455.5)"/><path fill="#16405E" d="M459 650h22v8h-22z"/><path fill="#16405E" d="M470.527 666.282A77.268 77.268 0 0 0 467 675.15l2.077 1.486A182.775 182.775 0 0 0 486.711 686c2.56-5.45 4.251-13.773 7.15-18.975 7.15-13.129 15.99-53.21 15.073-57.619-2.85-13.277-5.797-26.605-8.165-39.981-1.304-7.432-4.83-21.601-12.899-24.772a8.805 8.805 0 0 0-1.884-.495c-13.43-2.081-15.846 16.944-14.928 26.406a100.664 100.664 0 0 0 5.797 22.74c4.059 12.04 8.552 11.94 5.363 24.475-3.43 13.426-5.942 36.266-11.691 48.503Z"/><path fill="url(#Z)" d="M1022.836 233.627c20.52 20.27 51.5 26.428 78.471 15.598 26.97-10.83 44.612-36.51 44.685-65.049.073-28.539-17.437-54.305-44.352-65.267-26.915-10.961-57.926-4.955-78.55 15.215-28.031 27.45-28.145 71.914-.254 99.503Z"/><path fill="url(#aa)" d="M1096.212 214.63a30.877 30.877 0 0 1 15.513 4.176c.619-9.537 5.828-18.204 14.011-23.31 8.183-5.106 18.349-6.034 27.341-2.494 4.331-17.4 21.337-28.71 39.299-26.138 17.962 2.571 31.012 18.184 30.157 36.082v1.491c19.584 0 35.459 15.671 35.459 35.003 0 19.331-15.875 35.002-35.459 35.002a28.47 28.47 0 0 1-3.626 0h-119.37a24.848 24.848 0 0 1-3.325 0c-16.69 0-30.22-13.356-30.22-29.832 0-16.475 13.53-29.831 30.22-29.831v-.15Z" opacity=".6"/><path fill="url(#ab)" d="M991.304 258.986a20.436 20.436 0 0 0-10.536 2.959c-.732-10.924-9.726-19.407-20.575-19.408a20.161 20.161 0 0 0-6.76 1.153c-3.115-10.189-12.443-17.142-23.01-17.151a19.257 19.257 0 0 0-2.435 0c-9.94.631-18.47 7.367-21.47 16.95a20.161 20.161 0 0 0-6.759-1.153c-10.859 0-19.868 8.477-20.625 19.408a20.476 20.476 0 0 0-23.647 1.855c-6.707 5.587-9.22 14.82-6.281 23.08 2.938 8.26 10.695 13.773 19.392 13.782h33.994c.944.052 1.89.052 2.833 0h85.879c7.62.377 14.825-3.51 18.747-10.113a21.026 21.026 0 0 0 0-21.45c-3.922-6.603-11.128-10.49-18.747-10.113v.201Z" opacity=".3"/><ellipse cx="932.492" cy="333.5" fill="#FFF" rx="2.5" ry="3"/><circle cx="1019.992" cy="306.5" r="3" fill="#FFF"/><ellipse cx="1102.492" cy="335.5" fill="#FFF" rx="3.5" ry="2"/><circle cx="1227.492" cy="350" r="2.5" fill="#FFF"/><ellipse cx="1180.992" cy="291.5" fill="#FFF" rx="3" ry="2"/><ellipse cx="1266.992" cy="224" fill="#FFF" rx="3" ry="2.5"/><circle cx="1306.992" cy="314.5" r="3" fill="#FFF"/></g></svg>